Patient4_TMGait_0pt7_01_right_35_EMG.mot
version=1
nRows=40
nColumns=33
inDegrees=no
endheader
time	1LAddLong	2LGlutMax	3LGlutMed	4LIliopsoas	5LSemiMemb	6LBicFemLong	7LRecFem	8LVastMed	9LVastLat	10LGasMed	11LTibAnt	12lTibPost	13LPeroneusLong	14LSol	15LExtDigLong	16LFlexDigLong	17RAddLong	18RGlutMax	19RGlutMed	20RIliopsoas	21RSemiMemb	22RBicFemLong	23RRecFem	24RVastMed	25RVastLat	26RGasMed	27RTibAnt	28RTibPost	29RPeroneusLong	30RSol	31RExtDigLong	32RFlexDigLong
40.655	0.065765	-0.31342	-0.22018	0.003357	0.2565	-1.2517	0.091858	-0.023804	0.046082	0.03952	0.017395	0.000153	-0.012665	-0.092773	-0.14465	0.010376	0.016937	0.04776	-0.24872	0.14481	0.070953	0.020905	-0.41962	0.011139	-0.011444	-0.003052	-0.41382	-0.023041	0.002441	-0.039063	0.000916	-0.023499
40.656	0.033264	-0.31906	-0.27206	-0.001678	0.20523	-0.93536	0.074005	-0.016174	0.055084	0.13046	0.00885	-0.006866	-0.03891	-0.06073	-0.11307	0.003967	0.029602	0.076447	-0.12894	0.080719	0.047455	0.006714	-0.42541	0.000763	-0.013885	-0.00351	-0.30426	-0.023193	-0.088501	-0.023651	0.002136	-0.02243
40.657	0.023041	-0.32181	-0.30853	-0.006409	0.20905	-0.43457	-0.021515	0.002594	0.070343	0.1767	-0.001373	-0.006409	-0.041351	-0.040894	-0.046387	0.002441	-0.000916	0.10895	-0.38101	0.093689	0.056305	-0.000305	-0.44754	0.023651	-0.009003	-0.004883	-0.15671	-0.023346	-0.13412	0.014648	0.001221	-0.016022
40.658	0.006104	-0.25314	-0.22827	-0.003815	0.19821	-0.1973	-0.23651	0.016785	0.094757	0.24139	-0.010681	-0.00412	0.021362	-0.046234	0.061493	0.004578	-0.012512	0.073547	-0.29968	0.007019	0.046844	-0.026398	-0.46036	0.055695	-0.003967	0.000458	0.09613	-0.024261	-0.057983	0.015869	0.012054	-0.017395
40.659	-0.009918	-0.13016	-0.054016	0.002899	0.070496	-0.000763	-0.32486	0.007935	0.1619	0.15701	-0.018921	0.000458	0.19714	-0.026093	0.15732	0.005951	0.001373	0.043488	0.39047	-0.17609	0.055084	-0.030212	-0.48752	0.021057	-0.005035	0	0.26093	-0.015717	-0.14008	0.048523	0.005493	-0.016632
40.66	-0.039825	-0.11551	0.059204	0.002136	-0.0737	-0.038147	-0.27817	0.001831	0.22247	0.09613	-0.015106	-0.005951	0.084381	-0.007629	0.15503	0.006409	0.006409	0.005951	0.2092	-0.25269	0.049438	-0.02182	-0.50537	0.0383	0.002594	-0.001221	-0.24185	-0.026093	-0.12268	0.060883	-0.001221	-0.0177
40.661	-0.037537	0.010529	0.042572	-0.012054	-0.16708	-0.11047	-0.23575	0.000305	0.39932	0.21393	0.013428	0.005341	-0.1741	-0.014648	0.15488	-0.001984	0.006866	0.068512	0.18616	-0.12177	0.052032	0.006104	-0.48141	0.01358	0.001068	-0.001221	-0.39154	-0.024567	0.23102	-0.024872	0.003967	-0.023346
40.662	-0.017548	0.064697	0.006714	0.00061	-0.2005	-0.14481	-0.11887	0.0354	0.29587	0.15228	0.028229	-0.004578	-0.09079	-0.09491	0.083923	0.006409	0.011749	0.02182	-0.041199	0.019531	0.06897	0.13245	-0.48813	-0.021667	0.001526	0.003815	-0.10574	-0.021362	0.86716	-0.063934	0.004272	-0.016937
40.663	-0.013123	0.18387	0.016479	-0.000916	-0.006714	-0.24918	-0.11444	0.05188	0.084991	-0.15366	0.027008	-0.00885	0.028381	-0.1886	-0.023346	0.009613	0.003204	-0.039368	-0.32333	0.15213	0.084076	0.15732	-0.47821	0.041199	-0.005646	0.012054	0.10498	-0.0177	-0.098114	-0.094604	0.004883	-0.020142
40.664	-0.011902	0.16983	-0.015564	0.005188	0.14328	-0.30136	-0.051575	0.035706	-0.056458	-0.34637	0.032043	-0.026855	0.016022	-0.14557	-0.059509	0.010223	0.014496	-0.1062	-0.16159	0.12772	0.10071	0.034332	-0.44327	-0.002899	-0.002899	0.015564	0.15884	-0.01709	-0.85434	-0.088501	-0.001068	-0.00885
40.665	-0.004272	0.15778	0.031281	0.003662	0.095673	-0.1268	0.032501	0.016632	-0.048218	-0.25192	0.008545	-0.008545	-0.17334	-0.081635	-0.052948	0.024261	-0.003357	-0.06073	-0.084534	0.059967	0.097809	-0.03067	-0.48065	0.036316	-0.015106	0.00946	0.062256	-0.016174	-0.699	-0.074921	-0.002136	-0.000916
40.666	0.036316	0.15762	0.04837	0.00824	0.15259	0.08194	0.012512	0.001068	-0.13199	-0.32044	-0.014801	-0.004425	-0.004272	-0.052032	-0.040436	0.010834	0.003815	0.001526	-0.22339	0.016479	0.093079	-0.093384	-0.43823	0.023193	-0.027161	0.012665	-0.4483	-0.008392	0.8136	-0.08316	0.00351	-0.006104
40.667	0.074158	0.24353	0.17273	-0.00824	0.14725	0.16068	-0.08606	-0.023499	-0.32135	-0.2739	0.001678	-0.009308	-0.1181	-0.080566	0.001221	0.019379	-0.02121	-0.069885	-0.33173	-0.021057	0.084839	-0.15701	-0.43549	-0.017853	0.00061	0.020752	-0.18341	-0.013885	0.76294	-0.1178	0.001984	-0.008392
40.668	0.07843	0.20981	0.11246	-0.001373	0.037689	0.27756	-0.11871	-0.018768	-0.36041	-0.11429	0.012054	0.001373	-0.035706	-0.076752	0.005646	0.027771	-0.059967	-0.038452	-0.072479	0.033417	0.072479	-0.19821	-0.41824	-0.015106	-0.004425	0.000916	-0.15686	0.004883	-0.045166	-0.028687	-0.001221	-0.000916
40.669	0.073853	0.24612	0.054474	0.00351	-0.030823	0.42618	-0.091858	-0.021973	-0.21332	-0.081329	0.000916	-0.008698	0.001678	-0.06958	-0.005341	0.028229	-0.036316	-0.053864	0.11688	0.028534	0.075684	-0.20187	-0.40909	0.009766	0.002594	-0.000916	-0.18799	-0.005035	-0.22079	0.07019	-0.002899	-0.013428
40.67	0.048828	0.21088	0.029907	-0.010071	0.014496	0.61554	-0.009918	-0.020294	-0.045624	-0.068512	-0.006714	-0.001221	-0.022583	-0.04364	-0.007477	0.02121	-0.034027	-0.01297	0.023651	-0.032959	0.054932	-0.19302	-0.401	0.013733	-0.005951	-0.000916	-0.052032	-0.003967	-0.2533	0.087891	0.000916	-0.016785
40.671	0.018005	0.1889	-0.009308	0.007172	0.03891	0.73715	0.063934	-0.024872	0.10834	-0.065155	0.006256	-0.003052	0.11658	-0.089111	-0.028534	0.018616	-0.025635	-0.052338	0.094452	-0.024719	0.049591	-0.1712	-0.41992	0.030823	-0.010834	0.014343	0.088501	-0.004578	-0.44418	0.014191	0.001068	-0.02655
40.672	0.00885	0.2356	-0.039368	-0.001221	-0.027466	0.70709	0.074768	-0.023499	0.037231	-0.041504	0.004578	-0.009155	0.16007	-0.077515	-0.0177	0.028229	-0.003662	-0.013885	0.063019	-0.093079	0.062408	-0.16174	-0.49423	0.045166	-0.007172	0.035706	0.042725	-0.007935	-0.096283	0.045776	0.005646	-0.025177
40.673	0.021362	0.29526	-0.068817	-0.00061	-0.04425	0.63919	-0.019073	-0.018311	-0.10101	-0.040588	0.003357	-0.003052	0.11612	-0.007019	-0.008698	0.019989	0.03891	-0.012207	-0.067444	-0.098267	0.076294	-0.18097	-0.40039	0.043945	-0.003204	0.051117	-0.056305	-0.003052	0.16449	0.098114	0.003662	-0.022888
40.674	0.018463	0.29343	-0.15732	-0.012512	-0.051422	0.56091	-0.06546	-0.012665	-0.15762	-0.03067	-0.055237	-0.005341	0.086823	0.038757	0.001221	0.019379	0.071411	-0.072937	-0.049896	-0.11978	0.096588	-0.17059	-0.4306	0.020294	-0.001221	0.047607	-0.038452	0.000458	0.42328	0.057983	0.003357	-0.020752
40.675	0.003052	0.26779	-0.19379	0.000305	-0.08316	0.43533	-0.033722	-0.006256	-0.075073	-0.020447	0.000763	-0.002594	0.097351	0.10391	-0.008698	0.020294	0.088196	-0.11627	-0.065155	-0.079803	0.087128	-0.1236	-0.48599	0.009003	0.002594	0.018311	-0.006256	0.009155	0.44723	-0.032349	0.003662	-0.029755
40.676	-0.02121	0.28015	0.052032	0.01358	-0.057983	0.010681	-0.024414	0.007935	0.011597	-0.020447	-0.000305	-0.002594	0.11581	0.14435	-0.009308	0.019226	0.1091	-0.11871	-0.051117	0.020905	0.1088	-0.12314	-0.42694	0.014801	-0.010986	-0.0177	-0.014954	0.008545	0.013123	-0.088348	0.000763	-0.02533
40.677	-0.024719	0.29312	0.12329	0.014648	0.052338	-0.073242	-0.049438	0.017395	-0.015411	0.00946	-0.000305	0.001373	0.045319	0.11322	-0.030518	0.011597	0.082703	-0.10071	0.019379	-0.014343	0.10895	-0.053406	-0.45151	0.047913	0.003815	-0.052643	0.23254	0.012054	-0.049744	-0.20706	0.001526	-0.029755
40.678	-0.013885	0.31067	0.098419	0.018463	0.040131	0.041504	-0.12894	0.023956	-0.088654	0.01297	0.014191	-0.003052	-0.037689	0.051727	-0.027618	-0.013885	0.043793	-0.11002	-0.063782	-0.042114	0.13763	-0.018768	-0.43655	0.042267	-0.010223	-0.054626	0.28366	-0.040588	0.023651	-0.23239	0.003357	-0.031128
40.679	0.00824	0.38177	0.12405	0.018005	0.089264	-0.080261	-0.17838	0.013885	-0.088501	0.014191	0.001678	0.004425	0.018616	0.01297	-0.005188	-0.012512	-0.042725	-0.059814	-0.056915	-0.064087	0.17944	0.054779	-0.44067	0.039063	-0.021362	-0.063477	0.50797	-0.088806	-0.026245	0.2713	-0.000763	-0.023651
40.68	0.012665	0.38864	0.18723	0.013428	0.072327	-0.31082	-0.13168	0.009308	-0.023651	-0.012817	-0.011139	0.003662	0.27329	-0.071411	0.007782	-0.015564	-0.088348	-0.089874	0.094757	-0.070343	0.18005	0.053253	-0.41107	0.081024	-0.032349	-0.06134	0.37247	0.054932	-0.13519	0.6192	0.001984	-0.025482
40.681	0.013123	0.37689	0.057831	0.014038	0.054169	-0.53543	-0.075836	0.00824	0.007324	-0.014038	-0.002747	-0.00061	0.28	-0.065613	-0.003052	-0.022125	-0.070343	-0.056915	0.027008	0.002594	0.17441	0.064697	-0.44983	0.000305	-0.028076	-0.051117	-0.20844	0.032196	0.026093	0.39185	0.004578	-0.022125
40.682	0.005341	0.22644	0.053864	0.000458	0.07782	-0.56839	-0.074158	0.010529	0.039978	0.000458	-0.003204	0	-0.29114	-0.029602	-0.035248	-0.037842	-0.049133	-0.018005	-0.1355	0.074615	0.14313	0.011749	-0.4451	-0.002289	-0.056458	-0.03479	-0.4509	0.011292	0.345	0.059967	0.004883	-0.016022
40.683	-0.015717	0.22156	-0.040588	-0.00946	0.028992	-0.31723	-0.12344	-0.015869	0.090485	0.043945	-0.066071	-0.023346	-0.30548	0.020447	-0.056	-0.050201	0.016632	-0.087128	-0.014191	0.070801	0.14679	0.019989	-0.42816	0.00824	-0.037842	-0.008545	-0.81634	-0.005798	0.73883	-0.22339	0.004883	-0.012512
40.684	-0.050049	0.1239	-0.10849	0.00412	0.00885	-0.049591	-0.25879	-0.010986	0.087891	-0.050659	-0.082092	0.002899	0.047607	0.070496	-0.050659	-0.064545	0.050049	0.005188	0.26794	0.066986	0.11795	0.054779	-0.43121	0.0177	-0.033112	-0.006104	0.27496	0.006714	0.35736	-0.11475	0.00473	-0.008545
40.685	-0.066376	-0.11063	0.088196	0.014801	-0.00885	-0.1329	-0.21713	0.003967	-0.16052	0.00885	-0.016785	-0.009918	0.2385	0.11627	-0.040436	-0.079041	0.024109	0.00824	0.36484	0.054779	0.087433	-0.007629	-0.44174	0.011597	-0.029755	-0.010834	0.51224	0.00473	-0.018768	-0.059814	0.003357	-0.016327
40.686	-0.078278	-0.18539	0.15656	0.051117	-0.057983	-0.37659	-0.22522	0.022278	-0.3595	0.077515	0.13214	-0.025787	0.039063	0.19424	-0.006256	-0.10269	0.023193	-0.054779	0.13626	0.029755	0.071106	-0.057983	-0.38284	0.019989	-0.022125	-0.008698	-0.093842	-0.009918	-0.12695	-0.040588	0.003967	-0.025482
40.687	-0.077057	-0.21835	-0.091095	0.023956	-0.12985	-0.16495	-0.30899	0.039978	-0.3154	0.094299	0.17059	-0.036316	0.0914	0.27435	0.003967	-0.1178	0.063934	-0.11566	0.12528	0.063629	0.051422	-0.09964	-0.42816	0.089264	-0.0354	-0.001984	-0.84442	-0.000153	0.19821	0.00885	-0.00061	-0.026093
40.688	-0.050049	-0.16052	-0.059052	-0.022888	-0.082245	-0.087128	-0.28931	0.024567	-0.12283	0.051422	0.070343	-0.04837	0.014496	0.36224	0.072784	-0.13214	0.050201	-0.094757	0.21027	0.10483	0.076752	-0.10056	-0.43259	0.049286	-0.000916	0.001068	-0.68283	-0.003662	0.22461	0.049896	0.005188	-0.026703
40.689	-0.023804	-0.016022	-0.056	0.005493	0.012512	-0.086365	-0.16861	0.031738	-0.082855	-0.010986	-0.020142	-0.065765	0.22629	0.36758	0.061798	-0.12238	0.031586	-0.071259	0.16434	0.10269	0.067444	-0.081024	-0.48004	0.061035	0.014801	-0.012512	-0.009003	-0.005951	0.064697	0.043335	0.001373	-0.029144
40.69	-0.013275	0.019226	-0.11337	0.015564	0.11627	-0.23468	0.008087	0.039368	-0.2385	-0.12909	-0.16281	-0.082855	-0.11154	0.29587	0.067291	-0.10468	-0.000153	-0.034027	-0.002441	0.14297	0.065308	-0.065155	-0.46997	0.048065	0.018616	-0.018005	0.10574	-0.00412	-0.013428	0.13458	0.004425	-0.034332
40.691	0.010986	-0.031738	-0.2803	0.007019	0.099182	-0.14954	-0.001068	0.056305	-0.23956	-0.21866	-0.29511	-0.11032	-0.31387	0.26688	-0.040894	-0.075226	0.013885	-0.063477	-0.20599	0.028534	0.072632	-0.05249	-0.46585	0.057373	0.046387	-0.011597	-0.31052	-0.000458	0.14664	0.23682	0.003967	-0.025787
40.692	0.033875	-0.029144	-0.26169	-0.000305	0.004425	-0.031891	-0.074615	0.03067	-0.14954	-0.15671	-0.21988	-0.12665	0.07843	0.23361	-0.28503	-0.047607	0.030823	-0.10315	-0.067596	-0.069427	0.09903	-0.012054	-0.49164	0.091248	0.036621	-0.007324	-0.58014	-0.002747	0.19959	0.20889	0.000763	-0.024567
40.693	0.032654	-0.037079	-0.17395	-0.002594	-0.009766	-0.01236	-0.015869	0.015106	-0.1265	-0.19806	-0.096893	-0.13336	0.23666	0.16892	-0.35385	-0.023499	0.050049	-0.13901	0.14328	-0.096741	0.13687	0.060883	-0.47791	0.1265	0.037689	0.007629	-0.36682	-0.005035	0.097504	0.095978	0.003052	-0.021057
40.694	0.025482	-0.103	-0.20264	0.001221	-0.012054	0.023193	0.077362	0.010223	-0.06134	-0.20004	0.11398	-0.1239	-0.19455	0.26276	-0.44525	0.00885	0.040283	-0.12909	0.2124	-0.066376	0.14465	0.090637	-0.47348	0.10483	0.033569	0.001526	0.032349	-0.007935	0.18997	0.050812	0.003204	-0.01709
